/vscmnt/brussel_pixiu_data/_data_brussel/112/vsc11236/PredSimResults/SUBJ07opt3D/expIG/worker_14.mot
version=1
nRows=4
nColumns=50
inDegrees=yes
endheader
                time	         pelvis_tilt	         pelvis_list	     pelvis_rotation	           pelvis_tx	           pelvis_ty	           pelvis_tz	       hip_flexion_r	     hip_adduction_r	      hip_rotation_r	        knee_angle_r	       ankle_angle_r	         mtp_angle_r	       hip_flexion_l	     hip_adduction_l	      hip_rotation_l	        knee_angle_l	       ankle_angle_l	         mtp_angle_l	    lumbar_extension	      lumbar_bending	     lumbar_rotation	 ercspn_r/activation	 intobl_r/activation	 extobl_r/activation	    abd_r/activation	    add_r/activation	hamstrings_r/activation	bifemsh_r/activation	glut_max_r/activation	iliopsoas_r/activation	rect_fem_r/activation	  vasti_r/activation	gastroc_r/activation	 soleus_r/activation	tib_ant_r/activation	 ercspn_l/activation	 intobl_l/activation	 extobl_l/activation	    abd_l/activation	    add_l/activation	hamstrings_l/activation	bifemsh_l/activation	glut_max_l/activation	iliopsoas_l/activation	rect_fem_l/activation	  vasti_l/activation	gastroc_l/activation	 soleus_l/activation	tib_ant_l/activation	
          0.00000000	         -9.32770284	         -0.05383693	         14.34828910	          0.00000000	          0.81642218	         -0.01749518	         41.61782304	         -7.76968056	         -7.17649261	        -11.97477261	          0.28045123	          0.26927625	         -7.45374166	         -0.95985945	         12.24922833	        -22.47953541	          8.31091050	         38.01730789	        -12.50390264	         -2.22872312	          0.09066013	          0.16599441	          0.09083382	          0.00999999	          0.00999999	          0.10708671	          0.06242520	          0.20429936	          0.16277429	          0.06932136	          0.01811776	          0.00999999	          0.02420019	          0.01175092	          0.39292772	          0.16238975	          0.00999999	          0.00999999	          0.04197306	          0.06111873	          0.05109554	          0.33903030	          0.01898333	          0.00999999	          0.01622618	          0.06301234	          0.15862320	          0.29924511	          0.01815142	
          0.01050559	         -9.20680490	         -0.04996919	         14.56910045	          0.02492903	          0.81622834	         -0.01693770	         41.63398169	         -7.71365763	         -7.33457896	        -15.38378948	          0.09960713	          0.23635826	         -9.10150956	         -1.48344723	         11.91052182	        -22.09673523	          5.34515647	         38.93122760	        -12.17339761	         -1.96374865	         -0.08820156	          0.14298018	          0.07729925	          0.00999999	          0.00999999	          0.10161514	          0.06829476	          0.17385801	          0.25046294	          0.05899223	          0.01541815	          0.00999999	          0.02059427	          0.00999999	          0.46777567	          0.15484297	          0.00999999	          0.00999999	          0.03571892	          0.08723101	          0.04348212	          0.28851356	          0.01615474	          0.09787864	          0.01380842	          0.05362327	          0.13498777	          0.25465651	          0.01544679	
          0.02101118	         -9.08246096	         -0.00815656	         14.72904697	          0.04973172	          0.81610230	         -0.01630862	         41.63501697	         -7.66473058	         -7.45667200	        -18.74778003	         -0.06645862	          0.21204857	        -10.40395901	         -1.88506876	         11.55728117	        -22.35301732	          2.53144631	         39.00281850	        -11.87954015	         -1.73138760	         -0.24748016	          0.17445536	          0.06578138	          0.00999999	          0.06289470	          0.17097070	          0.06197205	          0.14795254	          0.33402992	          0.05020217	          0.01312079	          0.00999999	          0.01752565	          0.00999999	          0.50662628	          0.18657662	          0.00999999	          0.00999999	          0.03039667	          0.12959059	          0.03700313	          0.24552399	          0.01380842	          0.33523757	          0.01175092	          0.04563321	          0.11487410	          0.21671176	          0.01314516	
          0.03151677	         -8.95329102	          0.06001422	         14.83321628	          0.07420220	          0.81621219	         -0.01563600	         41.66550837	         -7.60664376	         -7.51313531	        -22.16504810	          0.06557436	          0.17329626	        -11.21228257	         -2.14414911	         11.26443557	        -23.45826178	         -0.23677844	         38.37975845	        -11.64091709	         -1.50956891	         -0.38359369	          0.20013516	          0.05597971	          0.00999999	          0.11941738	          0.23700317	          0.05636395	          0.12590707	          0.42865952	          0.04272187	          0.01116574	          0.00999999	          0.01491427	          0.00999999	          0.44636234	          0.25519159	          0.00999999	          0.00999999	          0.02586746	          0.16744719	          0.03148953	          0.20894002	          0.01175092	          0.54324976	          0.00999999	          0.03883370	          0.09775744	          0.18442092	          0.01118648	
